<svg id="Capa_1"
     enable-background="#d9561c"
     height="512"
     viewBox="0 0 512 512"
     width="512" xmlns="http://www.w3.org/2000/svg">
    <g><circle cx="256" cy="377" r="15"/>
        <path d="m155.779 233.497c11.625-3.467 25.8-6.497 40.221-6.497 33.164 0 65.361 15.908 66.709 16.582.249.132 27.334 13.418 53.291 13.418 19.466 0 39.597-7.538 47.939-11.043l-32.939-53.22v-132.737c16.569 0 30-13.431 30-30s-13.431-30-30-30h-150c-16.569 0-30 13.431-30 30s13.431 30 30 30v132.737z"/><path d="m91 512h330c33.091 0 60-26.909 60-60 0-12.568-3.838-24.595-10.562-33.97l-90.496-146.215-3.693 1.533c-11.924 5.068-35.757 13.652-60.249 13.652-33.164 0-65.347-15.908-66.709-16.582-.249-.132-27.334-13.418-53.291-13.418-15.381 0-31.187 4.658-41.733 8.569l-23.714 8.696-88.449 142.945c-7.266 10.195-11.104 22.222-11.104 34.79 0 33.091 26.909 60 60 60zm285-90c8.284 0 15 6.716 15 15s-6.716 15-15 15-15-6.716-15-15 6.716-15 15-15zm-180-60h17.763c.522-1.465 1.082-2.889 1.747-4.279l-12.523-12.523c-5.859-5.859-5.859-15.352 0-21.211s15.352-5.859 21.211 0l12.523 12.523c1.39-.665 2.814-1.225 4.279-1.747v-17.763c0-8.291 6.709-15 15-15s15 6.709 15 15v17.763c1.465.522 2.889 1.082 4.279 1.747l12.523-12.523c5.859-5.859 15.352-5.859 21.211 0s5.859 15.352 0 21.211l-12.523 12.523c.665 1.39 1.225 2.814 1.747 4.279h17.763c8.291 0 15 6.709 15 15s-6.709 15-15 15h-17.763c-.522 1.465-1.082 2.889-1.747 4.279l12.523 12.523c5.859 5.859 5.859 15.352 0 21.211s-15.352 5.859-21.211 0l-12.523-12.523c-1.39.665-2.814 1.225-4.279 1.747v17.763c0 8.291-6.709 15-15 15s-15-6.709-15-15v-17.763c-1.465-.522-2.889-1.082-4.279-1.747l-12.523 12.523c-5.859 5.859-15.352 5.859-21.211 0s-5.859-15.352 0-21.211l12.523-12.523c-.665-1.39-1.225-2.814-1.747-4.279h-17.763c-8.291 0-15-6.709-15-15s6.709-15 15-15zm-60 30c8.284 0 15 6.716 15 15s-6.716 15-15 15-15-6.716-15-15 6.716-15 15-15z"/></g></svg>